<?xml version="1.0" encoding="UTF-8" standalone="no"?>
<!-- Created with Inkscape (http://www.inkscape.org/) -->

<svg
   xmlns:dc="http://purl.org/dc/elements/1.1/"
   xmlns:cc="http://creativecommons.org/ns#"
   xmlns:rdf="http://www.w3.org/1999/02/22-rdf-syntax-ns#"
   xmlns:svg="http://www.w3.org/2000/svg"
   xmlns="http://www.w3.org/2000/svg"
   xmlns:sodipodi="http://sodipodi.sourceforge.net/DTD/sodipodi-0.dtd"
   xmlns:inkscape="http://www.inkscape.org/namespaces/inkscape"
   sodipodi:docname="EG_logo_final_version_colourwhite_cropped_white.svg"
   xml:space="preserve"
   height="201.52776"
   width="530.10876"
   inkscape:version="0.48.4 r9939"
   version="1.1"
   id="svg5077"><metadata
     id="metadata5083"><rdf:RDF><cc:Work
         rdf:about=""><dc:format>image/svg+xml</dc:format><dc:type
           rdf:resource="http://purl.org/dc/dcmitype/StillImage" /><dc:title></dc:title></cc:Work></rdf:RDF></metadata><defs
     id="defs5081" /><sodipodi:namedview
     pagecolor="#ffffff"
     bordercolor="#666666"
     borderopacity="1"
     objecttolerance="10"
     gridtolerance="10"
     guidetolerance="10"
     inkscape:pageopacity="0"
     inkscape:pageshadow="2"
     inkscape:window-width="1916"
     inkscape:window-height="1153"
     id="namedview5079"
     showgrid="false"
     inkscape:zoom="2.5462858"
     inkscape:cx="232.36283"
     inkscape:cy="102.53669"
     inkscape:window-x="0"
     inkscape:window-y="22"
     inkscape:window-maximized="0"
     inkscape:current-layer="g5087"
     fit-margin-top="0"
     fit-margin-left="0"
     fit-margin-right="0"
     fit-margin-bottom="0" /><g
     id="g5085"
     inkscape:groupmode="layer"
     inkscape:label="ink_ext_XXXXXX"
     transform="matrix(1.25,0,0,-1.25,0,262.15125)"><g
       id="g5087"
       transform="scale(0.1,0.1)"><path
         style="fill:#231f20;fill-opacity:1;fill-rule:nonzero;stroke:none"
         d="M 99.125 0 L 99.125 32.1875 C 93.50975 29.55875 85.84275 28.15625 80.6875 28.15625 C 63.84625 28.15625 60.84375 40.3 60.84375 59.78125 C 60.84375 78.67375 65.7915 90.59375 80.6875 90.59375 C 87.903375 90.59375 95.23 86.81125 99.125 83.71875 L 101.875 89.90625 L 115.15625 89.90625 L 115.15625 0 L 99.125 0 z M 214.46875 0 L 214.46875 89.90625 L 227.625 89.90625 L 230.5 83.71875 C 234.2825 86.81125 241.59375 90.59375 248.8125 90.59375 C 263.8175 90.59375 268.625 78.22125 268.625 59.78125 C 268.625 40.88 265.65375 28.15625 248.8125 28.15625 C 243.65875 28.15625 235.87375 29.55875 230.375 32.1875 L 230.375 0 L 214.46875 0 z M 453.0625 0.21875 L 453.0625 89.90625 L 469.09375 89.90625 L 469.09375 46.15625 C 473.78875 42.60375 477.33375 40.90625 483.75 40.90625 C 487.87 40.90625 490.5 43.16875 490.5 49.125 L 490.5 89.90625 L 506.53125 89.90625 L 506.53125 49.375 C 506.53125 37.8 502.54375 28.0625 488.34375 28.0625 C 479.06375 28.0625 474.00875 31.96375 468.96875 35.625 L 468.96875 0.21875 L 453.0625 0.21875 z M 186.75 28.0625 C 177.47125 28.0625 172.65375 31.845 167.5 35.625 L 164.28125 29.09375 L 151.46875 29.09375 L 151.46875 89.90625 L 167.5 89.90625 L 167.5 46.15625 C 172.19375 42.60375 175.7425 40.90625 182.15625 40.90625 C 186.16375 40.90625 188.90625 43.16875 188.90625 49.125 L 188.90625 89.90625 L 204.9375 89.90625 L 204.9375 49.375 C 204.9375 37.8 200.9525 28.0625 186.75 28.0625 z M 374.59375 28.53125 C 367.0325 28.53125 361.31 32.62125 357.1875 36.75 L 354.65625 29.09375 L 341.15625 29.09375 L 341.15625 89.90625 L 357.1875 89.90625 L 357.1875 51.09375 C 361.0775 45.47625 365.885 44.3125 372.53125 44.3125 C 376.07625 44.3125 379.74375 44.5425 381.34375 44.65625 L 381.34375 29.21875 C 379.74375 28.53375 377.225 28.53125 374.59375 28.53125 z M 27.3125 28.625 C 8.073725 28.625 0.71875 33.10375 0.71875 59.21875 C 0.71875 81.5625 5.31635 90.5 20.78125 90.5 C 30.287 90.5 43.34575 90.49 51.9375 87.28125 L 51.9375 76.40625 C 43.34575 77.785 38.8735 77.65625 29.59375 77.65625 C 20.890625 77.65625 16.75 76.975 16.75 66.09375 L 36.125 66.09375 C 47.121125 66.09375 53.0625 61.6225 53.0625 50.75 C 53.0625 30.58375 44.9565 28.625 27.3125 28.625 z M 409.1875 28.875 C 395.4425 28.875 388.09375 35.96125 388.09375 50.5 C 388.09375 56.57875 389.70625 64.13 394.75 67.34375 C 389.82625 68.95 387.73375 73.4075 387.65625 78.21875 C 387.54625 85.54625 391.27375 88.3 393.59375 89.90625 C 396.70625 92.05125 404.65625 91.625 404.65625 91.625 L 421.9375 91.53125 C 421.9375 91.53125 424.2525 91.60375 425.5 92.5 C 427.54125 93.9525 427.46875 96.15625 427.46875 96.15625 L 427.5625 102.59375 L 443.4375 102.5 L 443.5 96.3125 C 443.41875 84.30125 436.43 78.5625 425.4375 78.5625 L 406.78125 78.5625 C 404.26125 78.5625 402.1875 78.2475 402.1875 75.5 C 402.1875 72.86375 404.94625 72.84375 406.78125 72.84375 L 420.875 72.84375 C 438.0525 72.84375 441.71875 61.1625 441.71875 52.34375 C 441.71875 45.13125 440.44375 43.07375 439.40625 40.4375 L 446.1875 38.375 L 446.1875 28.875 L 409.1875 28.875 z M 125.125 29.09375 L 125.125 89.90625 L 141.15625 89.90625 L 141.15625 29.09375 L 125.125 29.09375 z M 277.21875 29.09375 L 277.21875 69.53125 C 277.21875 81.21875 281.225 90.9375 295.3125 90.9375 C 304.5925 90.9375 308.61625 87.05625 314.6875 83.5 L 317.78125 89.90625 L 330.71875 89.90625 L 330.71875 29.09375 L 314.6875 29.09375 L 314.6875 72.71875 C 309.9925 76.385 306.445 78 300.03125 78 C 296.01375 78 293.25 75.9425 293.25 69.875 L 293.25 29.09375 L 277.21875 29.09375 z M 84.90625 40.78125 C 90.399375 40.78125 94.88425 41.45625 99.125 43.0625 L 99.125 73.1875 C 95.6865 75.365 90.857 76.84375 84.90625 76.84375 C 79.63375 76.84375 76.90625 72.7375 76.90625 59.21875 C 76.90625 43.65625 79.7485 40.78125 84.90625 40.78125 z M 244.6875 40.78125 C 249.72625 40.78125 252.59375 43.65625 252.59375 59.21875 C 252.59375 72.7375 249.83875 76.84375 244.6875 76.84375 C 238.615 76.84375 233.93125 75.365 230.5 73.1875 L 230.5 43.0625 C 234.62 41.45625 239.0725 40.78125 244.6875 40.78125 z M 28.21875 40.90625 C 35.88825 40.90625 37.03125 42.25625 37.03125 49.9375 C 37.03125 52.9125 35.324625 54.53125 32 54.53125 L 16.75 54.53125 C 16.63525 41.36125 19.74175 40.90625 28.21875 40.90625 z M 411.6875 41.8125 L 417.78125 41.8125 C 423.51 41.8125 425.46125 44.20625 425.6875 50.5 C 425.6875 56.0075 423.9475 59.90625 417.875 59.90625 L 411.46875 59.90625 C 405.8625 59.90625 404.15625 56.12 404.15625 50.5 C 404.15625 45.92375 405.16 41.8125 411.6875 41.8125 z M 160.8125 108.75 C 151.5325 108.75 146.72125 112.53125 141.5625 116.3125 L 138.375 109.78125 L 125.53125 109.78125 L 125.53125 170.59375 L 141.5625 170.59375 L 141.5625 126.84375 C 146.2625 123.2875 149.80125 121.59375 156.21875 121.59375 C 160.23 121.59375 163 123.87875 163 129.84375 L 163 170.59375 L 179.03125 170.59375 L 179.03125 130.0625 C 179.03125 118.49375 175.01125 108.75 160.8125 108.75 z M 294.53125 108.875 C 285.37 108.875 281.0125 112.41875 275.625 116.3125 L 272.4375 109.78125 L 259.59375 109.78125 L 259.59375 170.59375 L 275.625 170.59375 L 275.625 126.96875 C 280.32375 123.41875 283.64 121.8125 289.9375 121.8125 C 293.95375 121.8125 296.71875 124.34 296.71875 130.0625 L 296.71875 170.59375 L 312.75 170.59375 L 312.75 130.15625 C 312.75 129.5875 312.625 127.09375 312.625 126.625 C 316.97125 122.9575 321.46125 121.8125 327.53125 121.8125 C 331.65125 121.8125 334.28125 124.34 334.28125 130.0625 L 334.28125 170.59375 L 350.3125 170.59375 L 350.3125 130.28125 C 350.3125 118.01875 345.6225 108.875 332.21875 108.875 C 322.71375 108.875 315.72625 112.7675 310.34375 116.78125 C 307.8225 111.8575 302.32375 108.875 294.53125 108.875 z M 218.8125 109.21875 C 198.30625 109.21875 191.0625 116.20363 191.0625 141.0625 C 191.0625 162.82375 197.8475 171.1875 218.8125 171.1875 C 240.11375 171.1875 246.5 163.62838 246.5 141.0625 C 246.5 116.88862 239.77 109.21875 218.8125 109.21875 z M 416.46875 109.21875 C 404.78375 109.21875 396.4375 115.03138 396.4375 140.125 C 396.4375 165.20663 405.1275 171.1875 416.46875 171.1875 C 425.975 171.07475 436.3975 171.86613 445.21875 167.28125 L 445.21875 157.21875 C 445.21875 157.21875 433.87375 158.25 423.34375 158.25 C 415.09125 158.25 412.46875 156.04 412.46875 140.46875 C 412.46875 122.48388 415.8925 122.03125 423.34375 122.03125 C 433.53375 122.03125 444.4375 122.71875 444.4375 122.71875 L 444.4375 112.875 C 434.46875 109.55625 422.42375 109.21875 416.46875 109.21875 z M 470.21875 109.21875 C 458.4225 109.21875 454.40625 116.2025 454.40625 125.59375 L 454.40625 130.84375 C 454.40625 142.64387 460.69625 147.21875 471.46875 147.21875 L 485.6875 147.21875 C 489.005 147.21875 489.6875 148.61225 489.6875 151.125 L 489.6875 154 C 489.6875 157.78125 486.715 157.875 485.6875 157.875 L 456.90625 157.875 L 456.90625 167.84375 C 461.15125 170.59075 479.245 171.1875 490.8125 171.1875 C 498.1475 171.1875 505.71875 167.73525 505.71875 155.25 L 505.71875 149.0625 C 505.71875 140.13375 501.13375 133.25 489.5625 133.25 L 475.125 133.25 C 472.48875 133.25 470.4375 133.14875 470.4375 129.375 L 470.4375 126.625 C 470.4375 123.765 470.99625 122.375 475.125 122.375 L 502.75 122.375 L 502.75 112.3125 C 498.055 109.5625 481.9 109.21875 470.21875 109.21875 z M 92.21875 109.3125 C 72.973625 109.3125 65.65625 113.79487 65.65625 139.90625 C 65.65625 162.24362 70.224625 171.1875 85.6875 171.1875 C 95.19925 171.1875 108.254 171.17625 116.84375 167.96875 L 116.84375 157.09375 C 108.254 158.47463 103.77638 158.34375 94.5 158.34375 C 85.796375 158.34375 81.6875 157.66125 81.6875 146.78125 L 101.03125 146.78125 C 112.02725 146.78125 117.96875 142.3275 117.96875 131.4375 C 117.96875 111.28125 109.8565 109.3125 92.21875 109.3125 z M 21.53125 109.5625 C 7.7876 109.5625 0.46875 116.6675 0.46875 131.21875 C 0.46875 137.28637 2.05615 144.82225 7.09375 148.03125 C 2.1709 149.6275 -5.9211895e-16 154.101 0 158.90625 C 0 164.642 2.73095 168.76513 5.9375 170.59375 L 0.5625 176.21875 L 0.5625 183.875 C 0.5625 195.90537 8.830625 201.53125 19.59375 201.53125 L 36.78125 201.53125 C 51.788125 201.53125 55.78125 192.5875 55.78125 183.875 L 55.78125 177.25 C 55.78125 164.9975 48.80525 159.25 37.8125 159.25 L 19.125 159.25 C 16.603 159.25 14.53125 158.92775 14.53125 156.1875 C 14.53125 153.55763 17.295875 153.53125 19.125 153.53125 L 33.21875 153.53125 C 50.398875 153.53125 54.0625 141.85888 54.0625 133.03125 C 54.0625 125.81875 52.8085 123.765 51.78125 121.125 L 58.53125 119.0625 L 58.53125 109.5625 L 21.53125 109.5625 z M 365.25 109.78125 L 365.25 170.59375 L 381.28125 170.59375 L 381.28125 109.78125 L 365.25 109.78125 z M 93.125 121.59375 C 100.79587 121.59375 101.9375 122.94125 101.9375 130.625 C 101.9375 133.5975 100.22413 135.21875 96.90625 135.21875 L 81.6875 135.21875 C 81.57275 122.045 84.6445 121.59375 93.125 121.59375 z M 218.8125 122.03125 C 228.4275 122.03125 230.46875 123.98862 230.46875 141.0625 C 230.46875 157.09125 227.85875 158.25 218.8125 158.25 C 210.33125 158.25 207.125 156.75238 207.125 141.0625 C 207.125 123.98862 209.3025 122.03125 218.8125 122.03125 z M 24.0625 122.5 L 30.125 122.5 C 35.8555 122.5 37.8085 124.9075 38.03125 131.21875 C 38.03125 136.71375 36.32125 140.59375 30.25 140.59375 L 23.8125 140.59375 C 18.20025 140.59375 16.5 136.82375 16.5 131.21875 C 16.5 126.63 17.537125 122.5 24.0625 122.5 z M 16.71875 171.875 C 16.71875 171.875 19.24025 172.21875 21.53125 172.21875 L 33.90625 172.21875 C 38.376875 172.3335 39.84375 174.371 39.84375 177.8125 L 39.84375 182.28125 C 39.84375 185.82863 39.184625 188.71875 33.34375 188.71875 L 23.9375 188.71875 C 19.815 188.71875 16.71875 188.00888 16.71875 181.9375 L 16.71875 171.875 z "
         id="path5089"
         transform="matrix(8,0,0,-8,0,2097.21)" /><path
         d="m 1134.77,1988.34 c 0,-38.19 -30.97,-69.21 -69.19,-69.21 -38.13,0 -69.131,31.02 -69.131,69.21 0,38.14 31.001,69.1 69.131,69.1 38.22,0 69.19,-30.96 69.19,-69.1 l 0,0"
         style="fill:#f3649d;fill-opacity:1;fill-rule:nonzero;stroke:none"
         id="path5107"
         inkscape:connector-curvature="0" /><path
         d="m 3054.35,1347.43 c 0,-38.2 -30.95,-69.16 -69.15,-69.16 -38.17,0 -69.15,30.96 -69.15,69.16 0,38.19 30.98,69.16 69.15,69.16 38.2,0 69.15,-30.97 69.15,-69.16 l 0,0"
         style="fill:#f9a850;fill-opacity:1;fill-rule:nonzero;stroke:none"
         id="path5109"
         inkscape:connector-curvature="0" /><path
         d="m 4240.87,803.301 c 0,-38.121 -30.96,-69.09 -69.15,-69.09 -38.2,0 -69.17,30.969 -69.17,69.09 0,38.269 30.97,69.23 69.17,69.23 38.19,0 69.15,-30.961 69.15,-69.23 l 0,0"
         style="fill:#5a8cd0;fill-opacity:1;fill-rule:nonzero;stroke:none"
         id="path5111"
         inkscape:connector-curvature="0" /><g
         id="g5119"
         transform="scale(10,10)" /></g></g></svg>